<svg xmlns="http://www.w3.org/2000/svg" viewBox="0 0 32 32">
  <rect width="32" height="32" rx="7" fill="#123458"/><path d="M8 0V32M16 0V32M24 0V32M0 8H32M0 16H32M0 24H32" stroke="#fff" stroke-opacity=".08" stroke-width=".6"/><rect x="4" y="4" width="16.5" height="16.5" rx="4" fill="#567bf7" fill-opacity="0.45" stroke="#9db6ff" stroke-width="1" stroke-dasharray="2 1.5"/><path d="M8.5 8.5L15.5 15.5M8.5 15.5H15.5M8.5 8.5V15.5" stroke="#fff" stroke-opacity=".7" stroke-width="1.3"/><circle cx="8.5" cy="8.5" r="2.1" fill="#fff"/><circle cx="8.5" cy="15.5" r="2.1" fill="#fff"/><circle cx="15.5" cy="15.5" r="2.4" fill="#fff"/><path d="M28.23 22.67A4.8 4.8 0 0 1 22.67 28.23" fill="none" stroke="#f2b84b" stroke-opacity=".6" stroke-width="1.3" stroke-linecap="round"/><path d="M30.39 22.28A7 7 0 0 1 22.28 30.39" fill="none" stroke="#f2b84b" stroke-opacity=".3" stroke-width="1.3" stroke-linecap="round"/><path d="M15.5 15.5L21 21" stroke="#f2b84b" stroke-width="2" stroke-linecap="round"/><circle cx="23.5" cy="23.5" r="2.6" fill="#123458" stroke="#f2b84b" stroke-width="1.8"/>
</svg>
